<svg width="75" height="75" viewBox="0 0 75 75" fill="none" xmlns="http://www.w3.org/2000/svg">
<g filter="url(#filter0_d)">
<rect x="10" y="10" width="55" height="55" rx="10" fill="white"/>
</g>
<path d="M42.5962 23.9014C42.4188 23.2394 41.9942 22.6859 41.4007 22.3433C40.1755 21.6359 38.603 22.057 37.8954 23.2826L37.5005 23.9666L37.1055 23.2825C36.398 22.0572 34.8256 21.6359 33.6003 22.3432H33.6002C32.3748 23.0507 31.9536 24.6231 32.661 25.8485L34.5374 29.0986L27.6138 41.0907H22.5661C21.1511 41.0907 20 42.2419 20 43.6568C20 45.0717 21.1511 46.2228 22.5661 46.2228H42.0537L39.0906 41.0907H33.5398L42.3398 25.8486C42.6826 25.255 42.7737 24.5634 42.5962 23.9014Z" fill="black"/>
<path d="M52.4349 41.0907H47.3871L41.6487 31.1515L38.6858 36.2836L47.5955 51.7156C47.9382 52.3093 48.4915 52.7339 49.1537 52.9114C49.3748 52.9706 49.5991 53 49.822 53C50.2667 53 50.7055 52.8834 51.101 52.655C52.3264 51.9475 52.7476 50.375 52.0401 49.1498L50.3501 46.2228H52.4349C53.8498 46.2228 55.0009 45.0717 55.0009 43.6568C55.0009 42.2419 53.8498 41.0907 52.4349 41.0907Z" fill="black"/>
<path d="M23.4656 48.2756L22.9609 49.1497C22.2535 50.3751 22.6748 51.9475 23.9002 52.655C24.3032 52.8876 24.7438 52.9983 25.1789 52.9982C26.0663 52.9982 26.9307 52.5379 27.4055 51.7157L29.3916 48.2756H23.4656Z" fill="black"/>
<defs>
<filter id="filter0_d" x="0" y="0" width="75" height="75" filterUnits="userSpaceOnUse" color-interpolation-filters="sRGB">
<feFlood flood-opacity="0" result="BackgroundImageFix"/>
<feColorMatrix in="SourceAlpha" type="matrix" values="0 0 0 0 0 0 0 0 0 0 0 0 0 0 0 0 0 0 127 0"/>
<feOffset/>
<feGaussianBlur stdDeviation="5"/>
<feColorMatrix type="matrix" values="0 0 0 0 0 0 0 0 0 0 0 0 0 0 0 0 0 0 0.1 0"/>
<feBlend mode="normal" in2="BackgroundImageFix" result="effect1_dropShadow"/>
<feBlend mode="normal" in="SourceGraphic" in2="effect1_dropShadow" result="shape"/>
</filter>
</defs>
</svg>
