<svg width="68" height="62" viewBox="0 0 68 62" fill="none" xmlns="http://www.w3.org/2000/svg">
<path d="M58.7273 37.2V46.5H68V52.7H58.7273V62H52.5455V52.7H43.2727V46.5H52.5455V37.2H58.7273ZM58.752 0C60.4458 0 61.8182 1.3795 61.8182 3.0783V31H55.6364V6.2H6.18182V49.5969L37.0909 18.6L46.3636 27.9V36.6699L37.0909 27.3699L14.9198 49.6H37.0909V55.8H3.06618C2.2527 55.7992 1.47281 55.4745 0.897876 54.8973C0.322944 54.3201 -4.12498e-07 53.5376 0 52.7217V3.0783C0.0056565 2.26417 0.330419 1.48495 0.904131 0.908975C1.47784 0.332996 2.25445 0.00649341 3.06618 0H58.752ZM18.5455 12.4C20.185 12.4 21.7573 13.0532 22.9167 14.2159C24.076 15.3787 24.7273 16.9557 24.7273 18.6C24.7273 20.2443 24.076 21.8213 22.9167 22.9841C21.7573 24.1468 20.185 24.8 18.5455 24.8C16.9059 24.8 15.3336 24.1468 14.1742 22.9841C13.0149 21.8213 12.3636 20.2443 12.3636 18.6C12.3636 16.9557 13.0149 15.3787 14.1742 14.2159C15.3336 13.0532 16.9059 12.4 18.5455 12.4Z" fill="#9CA7B3"/>
</svg>
