<svg width="28" height="27" viewBox="0 0 28 27" fill="none" xmlns="http://www.w3.org/2000/svg">
<path d="M22.0565 7.27503H17.5567V9.94526H22.0565C23.3952 9.94526 24.4335 10.6284 24.4335 11.2167V23.0579C24.4335 23.6458 23.3952 24.3298 22.0565 24.3298H5.04673C3.7085 24.3298 2.67023 23.6458 2.67023 23.0579V11.2181C2.67023 10.6297 3.7085 9.94615 5.04673 9.94615H9.54606V7.27592H5.04673C2.21673 7.27592 0 9.00756 0 11.2181V23.0583C0 25.2692 2.21673 27 5.04673 27H22.0574C24.8865 27 27.1041 25.2684 27.1041 23.0583V11.2181C27.1037 9.00667 24.887 7.27503 22.0565 7.27503Z" fill="white"/>
<path d="M17.5919 12.8558C17.2501 12.8558 16.9088 12.9866 16.648 13.2474L14.9764 14.9186V9.12105V6.45082V1.33511C14.9764 0.598131 14.3787 0 13.6413 0C12.9039 0 12.3062 0.598131 12.3062 1.33511V6.45038V9.1206V15.0085L10.5443 13.247C10.2835 12.9862 9.94169 12.8554 9.60034 12.8554C9.259 12.8554 8.91721 12.9862 8.65642 13.247C8.13483 13.7677 8.13483 14.6133 8.65642 15.1344L12.6426 19.1206C12.9034 19.3814 13.2452 19.5109 13.5861 19.5109C13.5897 19.5109 13.5932 19.5109 13.5963 19.5109C13.5995 19.5109 13.603 19.5109 13.6061 19.5109C13.9479 19.5109 14.2888 19.3814 14.5496 19.1206L18.5358 15.1344C19.0574 14.6133 19.0574 13.7677 18.5358 13.247C18.275 12.9866 17.9341 12.8558 17.5919 12.8558Z" fill="white"/>
</svg>
