<svg width="58" height="26" viewBox="0 0 58 26" fill="none" xmlns="http://www.w3.org/2000/svg">
<path d="M44.95 0C41.47 0 38.1834 1.35445 35.8271 3.71259L29 9.75904L28.9879 9.74691L25.3266 12.9757L25.3508 12.9999L18.8379 18.7804C17.2913 20.3162 15.2371 21.1628 13.05 21.1628C8.53087 21.1628 4.8575 17.4986 4.8575 13C4.8575 8.50141 8.53087 4.83723 13.05 4.83723C15.2371 4.83723 17.2913 5.68378 18.9466 7.32835L21.6895 9.75904L25.3386 6.53021L22.2815 3.82142C19.8165 1.36658 16.5419 0.0121319 13.0499 0.0121319C5.84837 1.1209e-06 0 5.8289 0 13C0 20.1711 5.84837 26 13.05 26C16.53 26 19.8046 24.6455 22.1729 22.2995L29 16.241L29.0121 16.2531L32.6613 13.0121L32.6491 13L39.162 7.23165C40.7087 5.68378 42.7629 4.83723 44.95 4.83723C49.4691 4.83723 53.1425 8.50141 53.1425 13C53.1425 17.4986 49.4691 21.1628 44.95 21.1628C42.7629 21.1628 40.7088 20.3162 39.0534 18.6837L36.3105 16.253L32.6613 19.4939L35.7184 22.2027C38.1834 24.6576 41.458 25.9999 44.938 25.9999C52.1516 26 58 20.1711 58 13C58 5.8289 52.1516 0 44.95 0Z" fill="white"/>
</svg>
