<svg width="27" height="27" viewBox="0 0 27 27" fill="none" xmlns="http://www.w3.org/2000/svg">
<path d="M26.6701 25.0796L18.992 17.4015C20.4793 15.5644 21.3747 13.23 21.3747 10.6875C21.3747 4.79477 16.58 0 10.6873 0C4.79466 0 0 4.79471 0 10.6875C0 16.5802 4.79472 21.375 10.6874 21.375C13.2299 21.375 15.5642 20.4795 17.4013 18.9922L25.0794 26.6704C25.2987 26.8897 25.5867 27 25.8747 27C26.1628 27 26.4507 26.8897 26.6701 26.6704C27.11 26.2305 27.11 25.5195 26.6701 25.0796ZM10.6874 19.125C6.03443 19.125 2.24999 15.3405 2.24999 10.6875C2.24999 6.03445 6.03443 2.24996 10.6874 2.24996C15.3404 2.24996 19.1248 6.03445 19.1248 10.6875C19.1248 15.3405 15.3403 19.125 10.6874 19.125Z" fill="white"/>
</svg>
