<svg width="123" height="18" viewBox="0 0 123 18" fill="none" xmlns="http://www.w3.org/2000/svg">
<path d="M18.9727 6.83507C18.9073 6.63491 18.7331 6.48904 18.5234 6.45882L12.6333 5.60878L9.99915 0.308139C9.90541 0.119445 9.71189 0 9.50003 0C9.28814 0 9.09465 0.119445 9.00087 0.308139L6.36656 5.60878L0.476589 6.45882C0.266959 6.48904 0.092731 6.63491 0.0272704 6.83503C-0.0382274 7.03519 0.0163974 7.25488 0.168137 7.40174L4.43006 11.5277L3.4241 17.3538C3.38825 17.5612 3.47412 17.7707 3.64553 17.8944C3.7425 17.9644 3.85735 18 3.97276 18C4.06138 18 4.15029 17.979 4.23171 17.9365L9.49999 15.1858L14.7681 17.9365C14.9556 18.0344 15.1829 18.0181 15.3543 17.8944C15.5257 17.7707 15.6116 17.5611 15.5758 17.3537L14.5695 11.5277L18.8319 7.4017C18.9836 7.25488 19.0382 7.03519 18.9727 6.83507Z" fill="#525FEF"/>
<path d="M44.9727 6.83507C44.9073 6.63491 44.7331 6.48904 44.5234 6.45882L38.6333 5.60878L35.9991 0.308139C35.9054 0.119445 35.7119 0 35.5 0C35.2881 0 35.0946 0.119445 35.0009 0.308139L32.3666 5.60878L26.4766 6.45882C26.267 6.48904 26.0927 6.63491 26.0273 6.83503C25.9618 7.03519 26.0164 7.25488 26.1681 7.40174L30.4301 11.5277L29.4241 17.3538C29.3883 17.5612 29.4741 17.7707 29.6455 17.8944C29.7425 17.9644 29.8573 18 29.9728 18C30.0614 18 30.1503 17.979 30.2317 17.9365L35.5 15.1858L40.7681 17.9365C40.9556 18.0344 41.1829 18.0181 41.3543 17.8944C41.5257 17.7707 41.6116 17.5611 41.5758 17.3537L40.5695 11.5277L44.8319 7.4017C44.9836 7.25488 45.0382 7.03519 44.9727 6.83507Z" fill="#525FEF"/>
<path d="M70.9727 6.83507C70.9073 6.63491 70.7331 6.48904 70.5234 6.45882L64.6333 5.60878L61.9991 0.308139C61.9054 0.119445 61.7119 0 61.5 0C61.2881 0 61.0946 0.119445 61.0009 0.308139L58.3666 5.60878L52.4766 6.45882C52.267 6.48904 52.0927 6.63491 52.0273 6.83503C51.9618 7.03519 52.0164 7.25488 52.1681 7.40174L56.4301 11.5277L55.4241 17.3538C55.3883 17.5612 55.4741 17.7707 55.6455 17.8944C55.7425 17.9644 55.8573 18 55.9728 18C56.0614 18 56.1503 17.979 56.2317 17.9365L61.5 15.1858L66.7681 17.9365C66.9556 18.0344 67.1829 18.0181 67.3543 17.8944C67.5257 17.7707 67.6116 17.5611 67.5758 17.3537L66.5695 11.5277L70.8319 7.4017C70.9836 7.25488 71.0382 7.03519 70.9727 6.83507Z" fill="#525FEF"/>
<path d="M96.9727 6.83507C96.9073 6.63491 96.7331 6.48904 96.5234 6.45882L90.6333 5.60878L87.9991 0.308139C87.9054 0.119445 87.7119 0 87.5 0C87.2881 0 87.0946 0.119445 87.0009 0.308139L84.3666 5.60878L78.4766 6.45882C78.267 6.48904 78.0927 6.63491 78.0273 6.83503C77.9618 7.03519 78.0164 7.25488 78.1681 7.40174L82.4301 11.5277L81.4241 17.3538C81.3883 17.5612 81.4741 17.7707 81.6455 17.8944C81.7425 17.9644 81.8573 18 81.9728 18C82.0614 18 82.1503 17.979 82.2317 17.9365L87.5 15.1858L92.7681 17.9365C92.9556 18.0344 93.1829 18.0181 93.3543 17.8944C93.5257 17.7707 93.6116 17.5611 93.5758 17.3537L92.5695 11.5277L96.8319 7.4017C96.9836 7.25488 97.0382 7.03519 96.9727 6.83507Z" fill="#525FEF"/>
<path d="M122.973 6.83507C122.907 6.63491 122.733 6.48904 122.523 6.45882L116.633 5.60878L113.999 0.308139C113.905 0.119445 113.712 0 113.5 0C113.288 0 113.095 0.119445 113.001 0.308139L110.367 5.60878L104.477 6.45882C104.267 6.48904 104.093 6.63491 104.027 6.83503C103.962 7.03519 104.016 7.25488 104.168 7.40174L108.43 11.5277L107.424 17.3538C107.388 17.5612 107.474 17.7707 107.646 17.8944C107.742 17.9644 107.857 18 107.973 18C108.061 18 108.15 17.979 108.232 17.9365L113.5 15.1858L118.768 17.9365C118.956 18.0344 119.183 18.0181 119.354 17.8944C119.526 17.7707 119.612 17.5611 119.576 17.3537L118.569 11.5277L122.832 7.4017C122.984 7.25488 123.038 7.03519 122.973 6.83507Z" fill="#9CA7B3"/>
</svg>
