<svg width="147" height="22" viewBox="0 0 147 22" fill="none" xmlns="http://www.w3.org/2000/svg">
<path d="M22.967 8.35397C22.8877 8.10934 22.6769 7.93105 22.4231 7.89412L15.293 6.85517L12.1042 0.376614C11.9908 0.145988 11.7565 0 11.5 0C11.2435 0 11.0093 0.145988 10.8958 0.376614L7.70689 6.85517L0.576923 7.89412C0.323161 7.93105 0.112253 8.10934 0.0330115 8.35393C-0.0462753 8.59856 0.0198494 8.86707 0.203534 9.04657L5.3627 14.0894L4.14496 21.2102C4.10157 21.4637 4.20552 21.7198 4.41301 21.871C4.53039 21.9565 4.66942 22 4.80913 22C4.9164 22 5.02403 21.9744 5.12259 21.9224L11.5 18.5604L17.8771 21.9223C18.1042 22.042 18.3793 22.0221 18.5867 21.871C18.7942 21.7198 18.8982 21.4636 18.8549 21.2101L17.6367 14.0894L22.7965 9.04653C22.9801 8.86707 23.0463 8.59856 22.967 8.35397Z" fill="#EDEDED"/>
<path d="M53.967 8.35397C53.8877 8.10934 53.6769 7.93105 53.4231 7.89412L46.293 6.85517L43.1042 0.376614C42.9908 0.145988 42.7565 0 42.5 0C42.2435 0 42.0093 0.145988 41.8958 0.376614L38.7069 6.85517L31.5769 7.89412C31.3232 7.93105 31.1123 8.10934 31.033 8.35393C30.9537 8.59856 31.0198 8.86707 31.2035 9.04657L36.3627 14.0894L35.145 21.2102C35.1016 21.4637 35.2055 21.7198 35.413 21.871C35.5304 21.9565 35.6694 22 35.8091 22C35.9164 22 36.024 21.9744 36.1226 21.9224L42.5 18.5604L48.8771 21.9223C49.1042 22.042 49.3793 22.0221 49.5867 21.871C49.7942 21.7198 49.8982 21.4636 49.8549 21.2101L48.6367 14.0894L53.7965 9.04653C53.9801 8.86707 54.0463 8.59856 53.967 8.35397Z" fill="#EDEDED"/>
<path d="M84.967 8.35397C84.8877 8.10934 84.6769 7.93105 84.4231 7.89412L77.293 6.85517L74.1042 0.376614C73.9908 0.145988 73.7565 0 73.5 0C73.2435 0 73.0093 0.145988 72.8958 0.376614L69.7069 6.85517L62.5769 7.89412C62.3232 7.93105 62.1123 8.10934 62.033 8.35393C61.9537 8.59856 62.0198 8.86707 62.2035 9.04657L67.3627 14.0894L66.145 21.2102C66.1016 21.4637 66.2055 21.7198 66.413 21.871C66.5304 21.9565 66.6694 22 66.8091 22C66.9164 22 67.024 21.9744 67.1226 21.9224L73.5 18.5604L79.8771 21.9223C80.1042 22.042 80.3793 22.0221 80.5867 21.871C80.7942 21.7198 80.8982 21.4636 80.8549 21.2101L79.6367 14.0894L84.7965 9.04653C84.9801 8.86707 85.0463 8.59856 84.967 8.35397Z" fill="#EDEDED"/>
<path d="M115.967 8.35397C115.888 8.10934 115.677 7.93105 115.423 7.89412L108.293 6.85517L105.104 0.376614C104.991 0.145988 104.756 0 104.5 0C104.244 0 104.009 0.145988 103.896 0.376614L100.707 6.85517L93.5769 7.89412C93.3232 7.93105 93.1123 8.10934 93.033 8.35393C92.9537 8.59856 93.0198 8.86707 93.2035 9.04657L98.3627 14.0894L97.145 21.2102C97.1016 21.4637 97.2055 21.7198 97.413 21.871C97.5304 21.9565 97.6694 22 97.8091 22C97.9164 22 98.024 21.9744 98.1226 21.9224L104.5 18.5604L110.877 21.9223C111.104 22.042 111.379 22.0221 111.587 21.871C111.794 21.7198 111.898 21.4636 111.855 21.2101L110.637 14.0894L115.796 9.04653C115.98 8.86707 116.046 8.59856 115.967 8.35397Z" fill="#EDEDED"/>
<path d="M146.967 8.35397C146.888 8.10934 146.677 7.93105 146.423 7.89412L139.293 6.85517L136.104 0.376614C135.991 0.145988 135.756 0 135.5 0C135.244 0 135.009 0.145988 134.896 0.376614L131.707 6.85517L124.577 7.89412C124.323 7.93105 124.112 8.10934 124.033 8.35393C123.954 8.59856 124.02 8.86707 124.204 9.04657L129.363 14.0894L128.145 21.2102C128.102 21.4637 128.206 21.7198 128.413 21.871C128.53 21.9565 128.669 22 128.809 22C128.916 22 129.024 21.9744 129.123 21.9224L135.5 18.5604L141.877 21.9223C142.104 22.042 142.379 22.0221 142.587 21.871C142.794 21.7198 142.898 21.4636 142.855 21.2101L141.637 14.0894L146.796 9.04653C146.98 8.86707 147.046 8.59856 146.967 8.35397Z" fill="#EDEDED"/>
</svg>
