<svg width="75" height="75" viewBox="0 0 75 75" fill="none" xmlns="http://www.w3.org/2000/svg">
<g filter="url(#filter0_d)">
<rect x="10" y="10" width="55" height="55" rx="10" fill="white"/>
</g>
<path d="M40.5843 20C34.8631 20 30.1959 24.6057 30.1515 30.2842L23.6547 39.5553C21.8422 39.3913 20.279 39.7654 18.897 40.6042L10 37.0218V46.8055L15.2617 48.9118C16.0219 52.3951 19.1533 55.0208 22.8586 55.0208C26.8869 55.0208 30.225 51.9407 30.5923 48.0184L40.5945 40.7426C46.3328 40.7426 51 36.1113 51 30.3679L50.9983 30.3662C50.9983 24.6501 46.3311 20 40.5843 20ZM22.8586 52.9572C20.66 52.9572 18.7672 51.7255 17.8054 49.93C18.7381 50.2853 19.6811 50.6765 20.6156 51.0421C22.9509 51.9988 25.6039 50.8593 26.5367 48.5343C27.4797 46.2093 26.3351 43.5853 24.0032 42.6542L21.6235 41.6975C22.0352 41.6053 22.4469 41.5609 22.8586 41.5609C26.0344 41.5609 28.5781 44.0943 28.5781 47.2582C28.5781 50.4237 26.0344 52.9572 22.8586 52.9572ZM40.5945 37.3157C36.732 37.3157 33.5938 34.215 33.5938 30.3679C33.5938 26.5378 36.7235 23.4201 40.5945 23.4201C44.4298 23.4201 47.568 26.5378 47.568 30.3679C47.568 34.2253 44.428 37.3259 40.5945 37.3157Z" fill="black"/>
<path d="M40.6133 24.7936C37.5297 24.7936 35.0322 27.2826 35.0322 30.3542C35.0322 33.4258 37.5212 35.9148 40.6133 35.9148C43.678 35.9148 46.1944 33.4343 46.1944 30.3542C46.1944 27.2741 43.678 24.7936 40.6133 24.7936Z" fill="black"/>
<defs>
<filter id="filter0_d" x="0" y="0" width="75" height="75" filterUnits="userSpaceOnUse" color-interpolation-filters="sRGB">
<feFlood flood-opacity="0" result="BackgroundImageFix"/>
<feColorMatrix in="SourceAlpha" type="matrix" values="0 0 0 0 0 0 0 0 0 0 0 0 0 0 0 0 0 0 127 0"/>
<feOffset/>
<feGaussianBlur stdDeviation="5"/>
<feColorMatrix type="matrix" values="0 0 0 0 0 0 0 0 0 0 0 0 0 0 0 0 0 0 0.1 0"/>
<feBlend mode="normal" in2="BackgroundImageFix" result="effect1_dropShadow"/>
<feBlend mode="normal" in="SourceGraphic" in2="effect1_dropShadow" result="shape"/>
</filter>
</defs>
</svg>
