<svg width="101" height="101" viewBox="0 0 101 101" fill="none" xmlns="http://www.w3.org/2000/svg">
<g filter="url(#filter0_d)">
<rect x="10" y="10" width="81" height="81" rx="10" fill="white"/>
</g>
<path d="M42.8728 56.7264L42.1615 66.7776C43.1792 66.7776 43.62 66.3384 44.1485 65.811L48.9199 61.23L58.8065 68.5037C60.6197 69.5189 61.8972 68.9843 62.3864 66.828L68.8759 36.2785L68.8777 36.2767C69.4529 33.5839 67.9084 32.5309 66.1418 33.1915L27.9963 47.8633C25.3929 48.8784 25.4323 50.3364 27.5537 50.997L37.306 54.0444L59.9586 39.8047C61.0247 39.0955 61.994 39.4879 61.1967 40.1971L42.8728 56.7264Z" fill="black"/>
<defs>
<filter id="filter0_d" x="0" y="0" width="101" height="101" filterUnits="userSpaceOnUse" color-interpolation-filters="sRGB">
<feFlood flood-opacity="0" result="BackgroundImageFix"/>
<feColorMatrix in="SourceAlpha" type="matrix" values="0 0 0 0 0 0 0 0 0 0 0 0 0 0 0 0 0 0 127 0"/>
<feOffset/>
<feGaussianBlur stdDeviation="5"/>
<feColorMatrix type="matrix" values="0 0 0 0 0 0 0 0 0 0 0 0 0 0 0 0 0 0 0.1 0"/>
<feBlend mode="normal" in2="BackgroundImageFix" result="effect1_dropShadow"/>
<feBlend mode="normal" in="SourceGraphic" in2="effect1_dropShadow" result="shape"/>
</filter>
</defs>
</svg>
