<svg width="101" height="101" viewBox="0 0 101 101" fill="none" xmlns="http://www.w3.org/2000/svg">
<g filter="url(#filter0_d)">
<rect x="10" y="10" width="81" height="81" rx="10" fill="white"/>
</g>
<path d="M66.0016 52.4826C65.2417 51.5376 65.4591 51.1171 66.0016 50.2724C66.0114 50.2628 72.2841 41.7269 72.9304 38.8321L72.9343 38.8302C73.2555 37.7753 72.9343 37 71.3813 37H66.2424C64.9342 37 64.331 37.6654 64.0079 38.4098C64.0079 38.4098 61.3915 44.5774 57.6901 48.5753C56.4955 49.7305 55.9432 50.1008 55.2911 50.1008C54.9699 50.1008 54.4705 49.7305 54.4705 48.6756V38.8302C54.4705 37.5651 54.1043 37 53.0213 37H44.9409C44.1203 37 43.6327 37.5901 43.6327 38.1398C43.6327 39.3394 45.4834 39.6151 45.6753 42.9901V50.3129C45.6753 51.9175 45.3796 52.2126 44.7235 52.2126C42.9766 52.2126 38.7367 46.0199 36.2241 38.9324C35.7168 37.5574 35.2214 37.0019 33.9034 37.0019H28.7626C27.2957 37.0019 27 37.6673 27 38.4117C27 39.727 28.7469 46.2668 35.1234 54.9068C39.3732 60.8044 45.3581 64 50.8024 64C54.0749 64 54.4744 63.2903 54.4744 62.0695C54.4744 56.4342 54.1787 55.9019 55.8179 55.9019C56.5777 55.9019 57.8859 56.2722 60.9411 59.1169C64.4329 62.4899 65.0067 64 66.9612 64H72.1C73.5649 64 74.3071 63.2903 73.8802 61.8901C72.903 58.9452 66.2992 52.8876 66.0016 52.4826Z" fill="black"/>
<defs>
<filter id="filter0_d" x="0" y="0" width="101" height="101" filterUnits="userSpaceOnUse" color-interpolation-filters="sRGB">
<feFlood flood-opacity="0" result="BackgroundImageFix"/>
<feColorMatrix in="SourceAlpha" type="matrix" values="0 0 0 0 0 0 0 0 0 0 0 0 0 0 0 0 0 0 127 0"/>
<feOffset/>
<feGaussianBlur stdDeviation="5"/>
<feColorMatrix type="matrix" values="0 0 0 0 0 0 0 0 0 0 0 0 0 0 0 0 0 0 0.1 0"/>
<feBlend mode="normal" in2="BackgroundImageFix" result="effect1_dropShadow"/>
<feBlend mode="normal" in="SourceGraphic" in2="effect1_dropShadow" result="shape"/>
</filter>
</defs>
</svg>
