<svg width="101" height="101" viewBox="0 0 101 101" fill="none" xmlns="http://www.w3.org/2000/svg">
<g filter="url(#filter0_d)">
<rect x="10" y="10" width="81" height="81" rx="10" fill="white"/>
</g>
<path fill-rule="evenodd" clip-rule="evenodd" d="M65.1721 36.813C61.4119 33.0664 56.4111 31.0022 51.0837 31C40.1058 31 31.1715 39.8914 31.1671 50.8196C31.1656 54.313 32.0826 57.7231 33.8255 60.729L31 71L41.5581 68.2437C44.4673 69.823 47.7425 70.6553 51.0756 70.6562H51.0839C62.0605 70.6562 70.9958 61.7642 71 50.8354C71.0022 45.5391 68.9325 40.5593 65.1721 36.813ZM51.0837 67.3088H51.0768C48.1065 67.3076 45.1934 66.5132 42.6515 65.0125L42.0472 64.6553L35.7819 66.291L37.4542 60.2117L37.0605 59.5884C35.4034 56.9653 34.5284 53.9336 34.5298 50.8208C34.5333 41.7375 41.9594 34.3477 51.0903 34.3477C55.5118 34.3491 59.6682 36.0649 62.7935 39.179C65.9188 42.293 67.6389 46.4321 67.6375 50.8342C67.6335 59.9182 60.2079 67.3088 51.0837 67.3088ZM60.1637 54.9702C59.6662 54.7222 57.2195 53.5244 56.7632 53.3589C56.3074 53.1936 55.9752 53.1113 55.6438 53.6069C55.3119 54.1025 54.3584 55.2183 54.0679 55.5486C53.7775 55.8792 53.4875 55.9207 52.9897 55.6726C52.492 55.4248 50.8886 54.9016 48.9877 53.2144C47.5084 51.9011 46.5098 50.2793 46.2193 49.7837C45.9293 49.2876 46.2169 49.0454 46.4376 48.7729C46.9764 48.1072 47.5158 47.4092 47.6816 47.0789C47.8477 46.7483 47.7645 46.459 47.6399 46.2112C47.5158 45.9634 46.5206 43.5256 46.106 42.5337C45.7017 41.5684 45.2918 41.6987 44.9861 41.6836C44.6962 41.6692 44.3642 41.6663 44.0323 41.6663C43.7007 41.6663 43.1615 41.79 42.7052 42.2861C42.2491 42.782 40.9637 43.98 40.9637 46.4177C40.9637 48.8555 42.7469 51.2104 42.9956 51.541C43.2444 51.8716 46.5049 56.874 51.4968 59.019C52.6841 59.5298 53.6109 59.8342 54.3338 60.0625C55.5261 60.4395 56.6106 60.3862 57.4682 60.2588C58.4244 60.1165 60.4122 59.0605 60.8273 57.9038C61.2419 56.7468 61.2419 55.7554 61.1173 55.5486C60.9931 55.342 60.6612 55.2183 60.1637 54.9702Z" fill="black"/>
<defs>
<filter id="filter0_d" x="0" y="0" width="101" height="101" filterUnits="userSpaceOnUse" color-interpolation-filters="sRGB">
<feFlood flood-opacity="0" result="BackgroundImageFix"/>
<feColorMatrix in="SourceAlpha" type="matrix" values="0 0 0 0 0 0 0 0 0 0 0 0 0 0 0 0 0 0 127 0"/>
<feOffset/>
<feGaussianBlur stdDeviation="5"/>
<feColorMatrix type="matrix" values="0 0 0 0 0 0 0 0 0 0 0 0 0 0 0 0 0 0 0.1 0"/>
<feBlend mode="normal" in2="BackgroundImageFix" result="effect1_dropShadow"/>
<feBlend mode="normal" in="SourceGraphic" in2="effect1_dropShadow" result="shape"/>
</filter>
</defs>
</svg>
