<svg width="101" height="101" viewBox="0 0 101 101" fill="none" xmlns="http://www.w3.org/2000/svg">
<g filter="url(#filter0_d)">
<rect x="10" y="10" width="81" height="81" rx="10" fill="white"/>
</g>
<path d="M71.114 40.6943C70.6185 38.8587 69.1661 37.4117 67.3242 36.9174C63.9594 36 50.4995 36 50.4995 36C50.4995 36 37.0402 36 33.6753 36.8826C31.8689 37.3764 30.381 38.8589 29.8855 40.6943C29 44.047 29 51 29 51C29 51 29 57.9881 29.8855 61.3057C30.3815 63.1411 31.8334 64.5881 33.6756 65.0823C37.0756 66 50.5 66 50.5 66C50.5 66 63.9594 66 67.3242 65.1174C69.1664 64.6234 70.6185 63.1764 71.1146 61.341C71.9998 57.9881 71.9998 51.0353 71.9998 51.0353C71.9998 51.0353 72.0353 44.047 71.114 40.6943ZM46.2142 57.4235V44.5765L57.4067 51L46.2142 57.4235Z" fill="black"/>
<defs>
<filter id="filter0_d" x="0" y="0" width="101" height="101" filterUnits="userSpaceOnUse" color-interpolation-filters="sRGB">
<feFlood flood-opacity="0" result="BackgroundImageFix"/>
<feColorMatrix in="SourceAlpha" type="matrix" values="0 0 0 0 0 0 0 0 0 0 0 0 0 0 0 0 0 0 127 0"/>
<feOffset/>
<feGaussianBlur stdDeviation="5"/>
<feColorMatrix type="matrix" values="0 0 0 0 0 0 0 0 0 0 0 0 0 0 0 0 0 0 0.1 0"/>
<feBlend mode="normal" in2="BackgroundImageFix" result="effect1_dropShadow"/>
<feBlend mode="normal" in="SourceGraphic" in2="effect1_dropShadow" result="shape"/>
</filter>
</defs>
</svg>
